<svg width="120" height="89" viewBox="0 0 120 89" fill="none" xmlns="http://www.w3.org/2000/svg">
<g clip-path="url(#clip0_819_14)">
<path d="M45.7317 33.8618C45.7317 33.8618 42.9057 32.7472 40.9837 32.2049C28.8282 28.7753 19.9035 38.9482 7.74796 35.5186C5.82601 34.9763 3 33.8618 3 33.8618M45.7317 19.6179C45.7317 19.6179 42.9057 18.5033 40.9837 17.9611C28.8282 14.5314 19.9035 24.7044 7.74796 21.2747C5.82601 20.7325 3 19.6179 3 19.6179M45.7317 5.37398C45.7317 5.37398 42.9057 4.25935 40.9837 3.71709C28.8282 0.287469 19.9035 10.4605 7.74796 7.03088C5.82601 6.48861 3 5.37398 3 5.37398" stroke="#3DDD78" stroke-width="4.74796" stroke-linecap="round" stroke-linejoin="round"/>
<path d="M53.3359 31.9453V2.02734C53.3359 1.92253 53.3809 1.83268 53.4707 1.75781C53.5755 1.68294 53.7327 1.63053 53.9424 1.60059C54.152 1.57064 54.3317 1.54818 54.4814 1.5332C54.6462 1.51823 54.8708 1.51074 55.1553 1.51074C55.4548 1.49577 55.6569 1.48828 55.7617 1.48828H74C75.4974 1.48828 76.9124 1.72786 78.2451 2.20703C79.5778 2.67122 80.7607 3.35254 81.7939 4.25098C82.8271 5.14941 83.6432 6.3099 84.2422 7.73242C84.8411 9.15495 85.1406 10.7572 85.1406 12.5391C85.1406 13.8568 84.9834 15.0622 84.6689 16.1553C84.3695 17.2484 83.9652 18.1842 83.4561 18.9629C82.9619 19.7266 82.348 20.4154 81.6143 21.0293C80.8955 21.6432 80.1543 22.1374 79.3906 22.5117C78.6419 22.8861 77.8109 23.208 76.8975 23.4775C75.984 23.7321 75.138 23.9193 74.3594 24.0391C73.5957 24.1589 72.7871 24.2487 71.9336 24.3086H67.6211C67.5013 26.6595 67.4414 29.2949 67.4414 32.2148V34.7305C67.3965 35.2695 67.1419 35.5391 66.6777 35.5391H53.9199C53.5306 34.5059 53.3359 33.3079 53.3359 31.9453ZM66.0039 16.2227L66.7227 17.2109C67.3366 17.2109 67.9206 17.166 68.4746 17.0762C69.0436 16.9863 69.5977 16.8291 70.1367 16.6045C70.6758 16.3799 71.14 16.0954 71.5293 15.751C71.9186 15.3916 72.2331 14.9424 72.4727 14.4033C72.7122 13.8493 72.832 13.2279 72.832 12.5391C72.832 12.015 72.7572 11.5508 72.6074 11.1465C72.4727 10.7272 72.3005 10.3903 72.0908 10.1357C71.8962 9.86621 71.6191 9.63411 71.2598 9.43945C70.9154 9.24479 70.5859 9.10254 70.2715 9.0127C69.972 8.90788 69.5827 8.83301 69.1035 8.78809C68.6393 8.72819 68.25 8.69824 67.9355 8.69824C67.6361 8.68327 67.2467 8.67578 66.7676 8.67578C66.2585 8.91536 66.0039 11.431 66.0039 16.2227ZM96.8652 29.4297C96.7604 29.7741 96.6556 30.2308 96.5508 30.7998C96.4609 31.3538 96.3711 31.7956 96.2812 32.125C96.2064 32.4395 96.0716 32.7764 95.877 33.1357C95.6823 33.4801 95.3828 33.7347 94.9785 33.8994C94.5892 34.0641 94.0801 34.1465 93.4512 34.1465H83.748V33.3828C84.5417 31.002 85.6947 27.3483 87.207 22.4219C88.7344 17.4954 89.9173 13.7669 90.7559 11.2363V11.2812C91.265 9.82878 92.0137 7.55273 93.002 4.45312C93.0169 4.42318 93.0394 4.38574 93.0693 4.34082C93.2041 4.11621 93.3314 3.94401 93.4512 3.82422L105.58 3.91406C107.646 3.91406 108.785 4.09375 108.994 4.45312V5.03711C109.024 5.17188 109.189 5.51628 109.488 6.07031C110.941 10.5176 112.004 13.752 112.678 15.7734V16.043C112.738 16.4772 112.872 16.9714 113.082 17.5254C113.292 18.0794 113.539 18.6784 113.823 19.3223C114.123 19.9512 114.332 20.4453 114.452 20.8047L115.351 24.0391C115.875 25.776 116.646 28.097 117.664 31.002V30.957V31.4062C117.709 31.6159 117.821 31.9004 118.001 32.2598C118.181 32.6191 118.293 32.8737 118.338 33.0234C118.338 33.4427 118.248 33.7122 118.068 33.832C117.904 33.9518 117.574 34.0117 117.08 34.0117H106.658C106.404 33.9818 106.239 33.9593 106.164 33.9443C106.089 33.9294 105.969 33.8994 105.805 33.8545C105.655 33.8096 105.543 33.7497 105.468 33.6748C105.408 33.5999 105.37 33.5026 105.355 33.3828L104.502 29.9688C104.442 29.6842 104.382 29.527 104.322 29.4971C104.262 29.4521 104.083 29.4297 103.783 29.4297H96.8652ZM97.9434 21.4336V21.5234V21.4336ZM102.885 18.7383C102.795 18.319 102.66 17.6452 102.48 16.7168C102.316 15.7734 102.151 14.9574 101.986 14.2686C101.822 13.5648 101.642 12.9134 101.447 12.3145V11.2363C101.327 10.9219 101.118 10.6973 100.818 10.5625V10.6074C100.459 10.6823 100.1 11.6855 99.7402 13.6172V14.6953C99.7103 14.8001 99.6429 14.8975 99.5381 14.9873C99.4333 15.0771 99.3809 15.1296 99.3809 15.1445C98.8867 17.3307 98.4824 19.0977 98.168 20.4453C98.168 20.5951 98.1305 20.8571 98.0557 21.2314C97.9808 21.6058 97.9434 21.8229 97.9434 21.8828H103.514C103.514 21.4935 103.379 20.7897 103.109 19.7715V19.2773C103.094 19.2324 103.049 19.1501 102.975 19.0303C102.915 18.8955 102.885 18.7982 102.885 18.7383Z" fill="#9448BC"/>
<path d="M1.29102 56.9922C1.29102 54.5514 1.54557 53.1888 2.05469 52.9043C2.20443 52.9342 2.41406 52.9492 2.68359 52.9492H3.40234C3.86654 52.9492 4.63021 52.9342 5.69336 52.9043C6.75651 52.8743 7.5651 52.8594 8.11914 52.8594C10.2454 52.8594 11.96 52.9492 13.2627 53.1289C14.5804 53.2936 15.3216 53.6081 15.4863 54.0723L15.2168 77.252H15.7109C16.9089 77.1921 17.7474 77.1696 18.2266 77.1846C18.7057 77.1846 19.5817 77.2145 20.8545 77.2744C22.1423 77.3193 23.3776 77.3418 24.5605 77.3418C25.5339 77.3418 26.2526 77.4017 26.7168 77.5215C27.196 77.6263 27.4355 77.8509 27.4355 78.1953V86.8203C27.2409 87.3594 23.9017 87.6289 17.418 87.6289H1.875C1.51562 87.1048 1.33594 86.2663 1.33594 85.1133V78.7344C1.33594 76.8626 1.35091 74.0924 1.38086 70.4238C1.41081 66.7552 1.42578 63.985 1.42578 62.1133C1.42578 61.7689 1.40332 61.0052 1.3584 59.8223C1.31348 58.6393 1.29102 57.696 1.29102 56.9922ZM29.2773 57.9805C29.2773 57.082 29.3148 56.5579 29.3896 56.4082C29.5244 56.1986 29.7415 56.0938 30.041 56.0938H30.5801C30.8197 56.0938 30.9844 56.1087 31.0742 56.1387H32.2422C33.7546 56.1387 36.0381 56.1012 39.0928 56.0264C42.1624 55.9515 44.4609 55.9141 45.9883 55.9141H51.9629C52.3522 55.959 52.5469 56.1536 52.5469 56.498V64C52.5319 64.0898 52.502 64.1722 52.457 64.2471C52.4271 64.307 52.3971 64.3519 52.3672 64.3818C52.3522 64.3968 52.2848 64.4492 52.165 64.5391C52.0452 64.6139 51.9629 64.6738 51.918 64.7188H41.4961V67.5039H42.4844C43.3529 67.5039 44.6781 67.474 46.46 67.4141C48.2419 67.3542 49.612 67.3242 50.5703 67.3242C50.9896 67.3242 51.2741 67.4066 51.4238 67.5713C51.5736 67.736 51.6484 67.9681 51.6484 68.2676C51.6484 68.3424 51.6335 68.4697 51.6035 68.6494C51.5736 68.8291 51.5586 68.9564 51.5586 69.0312V69.8848C51.5586 69.9447 51.5661 70.0719 51.5811 70.2666C51.596 70.4463 51.6035 70.6035 51.6035 70.7383V71.3672C51.6035 71.6966 51.6185 72.026 51.6484 72.3555C51.6784 72.6849 51.6934 72.9694 51.6934 73.209V73.793C51.6185 73.9727 51.5586 74.0924 51.5137 74.1523C51.4688 74.2122 51.3939 74.2422 51.2891 74.2422V74.1973C50.735 74.1973 49.7767 74.2347 48.4141 74.3096C47.0664 74.3844 45.9883 74.4219 45.1797 74.4219H41.5859V77.2969C41.7057 77.2969 41.8854 77.3044 42.125 77.3193C42.3646 77.3343 42.5443 77.3418 42.6641 77.3418C43.3379 77.3418 44.3337 77.3193 45.6514 77.2744C46.9691 77.2295 47.9199 77.207 48.5039 77.207H51.3789C52.1576 77.207 52.6517 77.2969 52.8613 77.4766C52.9362 77.5664 52.9961 77.6562 53.041 77.7461V84.9336C53.041 85.248 52.9811 85.4876 52.8613 85.6523C52.7415 85.8171 52.5169 85.9069 52.1875 85.9219H29.9512L29.2773 85.3379V57.9805ZM70.7627 67.2344C70.8675 66.6654 71.152 65.5798 71.6162 63.9775C72.0954 62.3604 72.3799 61.0801 72.4697 60.1367V58.5645C72.4697 58.5345 72.4847 58.4072 72.5146 58.1826C72.5596 57.958 72.582 57.8232 72.582 57.7783C72.597 57.7334 72.6195 57.6211 72.6494 57.4414C72.6943 57.2467 72.7318 57.1195 72.7617 57.0596C72.8066 56.9997 72.859 56.9023 72.9189 56.7676C72.9938 56.6328 73.0687 56.543 73.1436 56.498C73.2184 56.4382 73.3083 56.3708 73.4131 56.2959C73.5329 56.221 73.6602 56.1686 73.7949 56.1387C73.9447 56.1087 74.1019 56.0938 74.2666 56.0938H84.5088C84.5387 56.1087 84.6286 56.1686 84.7783 56.2734C84.9281 56.3783 85.0479 56.4681 85.1377 56.543C85.2425 56.6178 85.3024 56.6777 85.3174 56.7227L77.793 83.7881C77.6283 84.417 77.4186 84.9486 77.1641 85.3828C76.9245 85.8021 76.6475 86.0117 76.333 86.0117H60.9697C60.7301 85.0534 60.4531 83.9229 60.1387 82.6201C59.8242 81.3174 59.5098 80.0221 59.1953 78.7344C58.8809 77.4316 58.6038 76.2936 58.3643 75.3203L52.9062 56.7676C52.9062 56.4232 53.1533 56.1986 53.6475 56.0938V56.0039C54.5459 56.0039 55.901 55.9889 57.7129 55.959C59.5397 55.929 60.8649 55.9141 61.6885 55.9141H65.3721C65.4769 55.9141 65.5443 55.9365 65.5742 55.9814C65.6191 56.0114 65.6641 56.0863 65.709 56.2061C65.7689 56.3109 65.8438 56.4082 65.9336 56.498L69.1455 75.1406L71.1221 69.7051L70.7627 67.2344ZM95.4473 52.7246L100.299 44.4814L104.611 44.5938C104.731 44.5938 104.963 44.6012 105.308 44.6162C105.667 44.6312 106.049 44.6462 106.453 44.6611C106.872 44.6761 107.329 44.6911 107.823 44.7061C108.332 44.721 108.812 44.751 109.261 44.7959C109.725 44.8258 110.144 44.8708 110.519 44.9307C110.893 44.9756 111.192 45.0355 111.417 45.1104C111.657 45.1852 111.776 45.2676 111.776 45.3574L105.689 52.1855C105.435 52.4701 105.188 52.7021 104.948 52.8818C104.724 53.0615 104.521 53.2038 104.342 53.3086C104.177 53.4134 103.945 53.4958 103.646 53.5557C103.346 53.6006 103.106 53.6305 102.927 53.6455C102.762 53.6455 102.44 53.653 101.961 53.668C101.497 53.6829 101.122 53.6979 100.838 53.7129H95.9863L95.4473 52.7246ZM97.2441 81.4297C97.1393 81.7741 97.0345 82.2308 96.9297 82.7998C96.8398 83.3538 96.75 83.7956 96.6602 84.125C96.5853 84.4395 96.4505 84.7764 96.2559 85.1357C96.0612 85.4801 95.7617 85.7347 95.3574 85.8994C94.9681 86.0641 94.459 86.1465 93.8301 86.1465H84.127V85.3828C84.9206 83.002 86.0736 79.3483 87.5859 74.4219C89.1133 69.4954 90.2962 65.7669 91.1348 63.2363V63.2812C91.6439 61.8288 92.3926 59.5527 93.3809 56.4531C93.3958 56.4232 93.4183 56.3857 93.4482 56.3408C93.583 56.1162 93.7103 55.944 93.8301 55.8242L105.959 55.9141C108.025 55.9141 109.163 56.0938 109.373 56.4531V57.0371C109.403 57.1719 109.568 57.5163 109.867 58.0703C111.32 62.5176 112.383 65.752 113.057 67.7734V68.043C113.117 68.4772 113.251 68.9714 113.461 69.5254C113.671 70.0794 113.918 70.6784 114.202 71.3223C114.502 71.9512 114.711 72.4453 114.831 72.8047L115.729 76.0391C116.254 77.776 117.025 80.097 118.043 83.002V82.957V83.4062C118.088 83.6159 118.2 83.9004 118.38 84.2598C118.56 84.6191 118.672 84.8737 118.717 85.0234C118.717 85.4427 118.627 85.7122 118.447 85.832C118.283 85.9518 117.953 86.0117 117.459 86.0117H107.037C106.783 85.9818 106.618 85.9593 106.543 85.9443C106.468 85.9294 106.348 85.8994 106.184 85.8545C106.034 85.8096 105.922 85.7497 105.847 85.6748C105.787 85.5999 105.749 85.5026 105.734 85.3828L104.881 81.9688C104.821 81.6842 104.761 81.527 104.701 81.4971C104.641 81.4521 104.462 81.4297 104.162 81.4297H97.2441ZM98.3223 73.4336V73.5234V73.4336ZM103.264 70.7383C103.174 70.319 103.039 69.6452 102.859 68.7168C102.695 67.7734 102.53 66.9574 102.365 66.2686C102.201 65.5648 102.021 64.9134 101.826 64.3145V63.2363C101.706 62.9219 101.497 62.6973 101.197 62.5625V62.6074C100.838 62.6823 100.479 63.6855 100.119 65.6172V66.6953C100.089 66.8001 100.022 66.8975 99.917 66.9873C99.8122 67.0771 99.7598 67.1296 99.7598 67.1445C99.2656 69.3307 98.8613 71.0977 98.5469 72.4453C98.5469 72.5951 98.5094 72.8571 98.4346 73.2314C98.3597 73.6058 98.3223 73.8229 98.3223 73.8828H103.893C103.893 73.4935 103.758 72.7897 103.488 71.7715V71.2773C103.473 71.2324 103.428 71.1501 103.354 71.0303C103.294 70.8955 103.264 70.7982 103.264 70.7383Z" fill="#9448BC"/>
</g>
<defs>
<clipPath id="clip0_819_14">
<rect width="120" height="89" fill="white"/>
</clipPath>
</defs>
</svg>
