<svg width="49" height="39" viewBox="0 0 49 39" fill="none" xmlns="http://www.w3.org/2000/svg">
<path d="M45.7317 33.8618C45.7317 33.8618 42.9057 32.7472 40.9837 32.2049C28.8282 28.7753 19.9035 38.9482 7.74796 35.5186C5.82601 34.9763 3 33.8618 3 33.8618M45.7317 19.6179C45.7317 19.6179 42.9057 18.5033 40.9837 17.9611C28.8282 14.5314 19.9035 24.7044 7.74796 21.2747C5.82601 20.7325 3 19.6179 3 19.6179M45.7317 5.37398C45.7317 5.37398 42.9057 4.25935 40.9837 3.71709C28.8282 0.287469 19.9035 10.4605 7.74796 7.03088C5.82601 6.48861 3 5.37398 3 5.37398" stroke="#3DDD78" stroke-width="4.74796" stroke-linecap="round" stroke-linejoin="round"/>
</svg>
